HIERARCHY
ROOT root
{
	OFFSET	0	13.1	24.9
	CHANNELS 6  Xposition Yposition Zposition Xrotation Yrotation Zrotation
	JOINT spine_1
	{
		OFFSET	0	9.99999	0
		CHANNELS 3  Xrotation Yrotation Zrotation
		JOINT spine_2
		{
			OFFSET	0	112	-10
			CHANNELS 3  Xrotation Yrotation Zrotation
			JOINT spine_3
			{
				OFFSET	0	206.5	19.3
				CHANNELS 3  Xrotation Yrotation Zrotation
				JOINT spine_4
				{
					OFFSET	0	110.4	14.6
					CHANNELS 3  Xrotation Yrotation Zrotation
					JOINT neck_1
					{
						OFFSET	0	71.8	-50.3
						CHANNELS 3  Xrotation Yrotation Zrotation
						JOINT neck_2
						{
							OFFSET	0	86.2	-25.8
							CHANNELS 3  Xrotation Yrotation Zrotation
							JOINT head_ee
							{
								OFFSET	0	179.8	-8.7
								CHANNELS 3  Xrotation Yrotation Zrotation
								End Site
								{
									OFFSET	1	0	0
								}
							}
						}
					}
					JOINT left_clavicle
					{
						OFFSET	-43.2	22.4	-70.8
						CHANNELS 3  Xrotation Yrotation Zrotation
						JOINT left_shoulder
						{
							OFFSET	-93.9	-5.79999	48.7
							CHANNELS 3  Xrotation Yrotation Zrotation
							JOINT left_elbow
							{
								OFFSET	-291.4	-30.8	15.2
								CHANNELS 3  Xrotation Yrotation Zrotation
								JOINT left_lowarm_twist
								{
									OFFSET	-110.7	-3.89999	13.6
									CHANNELS 3  Xrotation Yrotation Zrotation
									JOINT left_hand
									{
										OFFSET	-110.7	-3.89999	13.6
										CHANNELS 3  Xrotation Yrotation Zrotation
										JOINT left_ee
										{
											OFFSET	-80.8	-5.10001	12.1
											CHANNELS 3  Xrotation Yrotation Zrotation
											End Site
											{
												OFFSET	1	0	0
											}
										}
									}
								}
							}
						}
					}
					JOINT right_clavicle
					{
						OFFSET	43.2	22.4	-70.8
						CHANNELS 3  Xrotation Yrotation Zrotation
						JOINT right_shoulder
						{
							OFFSET	93.9	-5.79999	48.7
							CHANNELS 3  Xrotation Yrotation Zrotation
							JOINT right_elbow
							{
								OFFSET	291.4	-30.8	15.2
								CHANNELS 3  Xrotation Yrotation Zrotation
								JOINT right_lowarm_twist
								{
									OFFSET	110.7	-3.89999	13.6
									CHANNELS 3  Xrotation Yrotation Zrotation
									JOINT right_hand
									{
										OFFSET	110.7	-3.89999	13.6
										CHANNELS 3  Xrotation Yrotation Zrotation
										JOINT right_ee
										{
											OFFSET	80.8	-5.10001	12.1
											CHANNELS 3  Xrotation Yrotation Zrotation
											End Site
											{
												OFFSET	1	0	0
											}
										}
									}
								}
							}
						}
					}
				}
			}
		}
	}
	JOINT left_hip
	{
		OFFSET	-82.8	-127.5	0.300001
		CHANNELS 3  Xrotation Yrotation Zrotation
		JOINT left_knee
		{
			OFFSET	-28.2	-396.7	2.2
			CHANNELS 3  Xrotation Yrotation Zrotation
			JOINT left_ankle
			{
				OFFSET	-11.7	-411.3	35.4
				CHANNELS 3  Xrotation Yrotation Zrotation
				JOINT left_toes
				{
					OFFSET	0	-60	-88.6
					CHANNELS 3  Xrotation Yrotation Zrotation
					JOINT left_foot_ee
					{
						OFFSET	-22.5	-16.5	-42.2
						CHANNELS 3  Xrotation Yrotation Zrotation
						End Site
						{
							OFFSET	1	0	0
						}
					}
				}
			}
		}
	}
	JOINT right_hip
	{
		OFFSET	82.8	-127.5	0.300001
		CHANNELS 3  Xrotation Yrotation Zrotation
		JOINT right_knee
		{
			OFFSET	28.2	-396.7	2.2
			CHANNELS 3  Xrotation Yrotation Zrotation
			JOINT right_ankle
			{
				OFFSET	11.7	-411.3	35.4
				CHANNELS 3  Xrotation Yrotation Zrotation
				JOINT right_toes
				{
					OFFSET	0	-60	-88.6
					CHANNELS 3  Xrotation Yrotation Zrotation
					JOINT right_foot_ee
					{
						OFFSET	22.5	-16.5	-42.2
						CHANNELS 3  Xrotation Yrotation Zrotation
						End Site
						{
							OFFSET	1	0	0
						}
					}
				}
			}
		}
	}
}
MOTION
Frames: 16
Frame Time: 0.02
2800.94 716.97 -1473.77 -6.16142894239 52.9790053232 -1.88408882176 2.25087 0.467908 3.57332 2.25794 0.239731 3.59581 2.27226 -0.379925 3.58373 2.25439 0.190448 3.59875 -4.17024 15.8345 -5.22398 -3.65114 32.9495 -2.91355 -0.0 0.0 -0.0 -0.92739 23.3322 1.42818 14.1612 -29.9511 51.7019 4.08836 -63.7028 2.54063 -37.5651 -2.69601 3.88036 -1.59799 11.6851 -5.31781 -0.0 0.0 -0.0 12.3884 16.9985 -25.0069 -29.5403 2.8015 -64.2822 0.23558 6.65643 -0.0136999 -6.76832 0.287064 -0.815728 -0.942261 -28.8358 -6.15408 0.0 0.0 0.0 -14.4389 2.80401 20.2533 -0.799898 0.0321094 0.118554 39.7323 10.6132 -4.85769 -30.5599 0.0 0.0 -0.0 0.0 -0.0 36.4864 17.2785 -7.36313 -1.29897 -0.0513016 -0.19274 -17.4831 13.2598 -2.83125 -26.288 0.0 0.0 0.0 0.0 0.0 
2728.23882282 700.297 -1500.62784125 -6.4968287234 58.0771915359 -2.27543677058 1.9933 0.567651 3.65642 2.00068 0.333995 3.68508 2.022 -0.318314 3.68647 2.00314 0.267481 3.6905 -2.59912 15.2261 -6.09172 -1.84172 32.354 -4.42327 -0.0 0.0 -0.0 -0.930632 21.4467 1.16548 4.75365 -27.0111 53.0661 2.72662 -53.4755 1.37379 -38.7042 -2.81443 3.96605 -0.89847 12.1422 -0.67787 -0.0 0.0 -0.0 12.0475 17.4817 -24.1986 -21.8911 5.82807 -68.127 0.389327 10.9163 -0.037201 -3.58792 0.140153 -0.436599 -0.188565 -28.054 -9.96983 0.0 0.0 0.0 -15.7379 3.44529 20.4451 -8.2596 0.250929 1.24167 42.0379 13.5411 -5.08945 -31.7638 0.0 0.0 -0.0 0.0 -0.0 37.1669 18.8269 -7.06864 -13.1687 -0.314469 -1.99202 -16.2803 10.0852 -2.58073 -26.1506 0.0 0.0 0.0 0.0 0.0 
2728.86863418 700.297 -1502.27478957 -6.26994170671 56.7817201467 -2.54464825483 1.9933 0.567651 3.65642 2.00068 0.333995 3.68508 2.022 -0.318314 3.68647 2.00314 0.267481 3.6905 -2.59912 15.2261 -6.09172 -1.84172 32.354 -4.42327 -0.0 0.0 -0.0 -0.930632 21.4467 1.16548 4.75365 -27.0111 53.0661 2.72662 -53.4755 1.37379 -38.7042 -2.81443 3.96605 -0.89847 12.1422 -0.67787 -0.0 0.0 -0.0 12.0475 17.4817 -24.1986 -21.8911 5.82807 -68.127 0.389327 10.9163 -0.037201 -3.58792 0.140153 -0.436599 -0.188565 -28.054 -9.96983 0.0 0.0 0.0 -15.7379 3.44529 20.4451 -8.2596 0.250929 1.24167 42.0379 13.5411 -5.08945 -31.7638 0.0 0.0 -0.0 0.0 -0.0 37.1669 18.8269 -7.06864 -13.1687 -0.314469 -1.99202 -16.2803 10.0852 -2.58073 -26.1506 0.0 0.0 0.0 0.0 0.0 
2704.82804368 700.057 -1512.50000971 -7.09487950217 57.5890250954 -1.98933516941 1.94719 0.722856 3.83309 1.95523 0.477669 3.87124 1.98756 -0.21164 3.89482 1.96663 0.405656 3.87943 -1.41634 15.4475 -6.7854 -0.413675 33.1816 -5.54061 -0.0 0.0 -0.0 -0.581232 21.6936 1.69532 2.80847 -24.5448 53.4794 2.36465 -49.5055 1.09038 -39.2604 -2.87286 4.00704 -0.758117 11.5897 -0.0291126 -0.0 0.0 -0.0 12.3553 17.649 -24.8977 -20.3777 6.28733 -69.0391 0.321795 9.05738 -0.025488 -2.61881 0.0996013 -0.319537 0.0577177 -26.645 -10.8424 0.0 0.0 0.0 -15.5408 3.14474 20.0942 -10.7582 0.291305 1.62291 41.5914 15.9102 -5.0879 -32.9281 0.0 0.0 -0.0 0.0 -0.0 36.3797 19.1537 -6.96207 -12.3975 -0.308748 -1.87383 -14.6296 12.9045 -2.35846 -28.9855 0.0 0.0 0.0 0.0 0.0 
2705.53997243 700.057 -1514.22190402 -6.9010123379 56.5664272363 -2.22028271748 1.94719 0.722856 3.83309 1.95523 0.477669 3.87124 1.98756 -0.21164 3.89482 1.96663 0.405656 3.87943 -1.41634 15.4475 -6.7854 -0.413675 33.1816 -5.54061 -0.0 0.0 -0.0 -0.581232 21.6936 1.69532 2.80847 -24.5448 53.4794 2.36465 -49.5055 1.09038 -39.2604 -2.87286 4.00704 -0.758117 11.5897 -0.0291126 -0.0 0.0 -0.0 12.3553 17.649 -24.8977 -20.3777 6.28733 -69.0391 0.321795 9.05738 -0.025488 -2.61881 0.0996013 -0.319537 0.0577177 -26.645 -10.8424 0.0 0.0 0.0 -15.5408 3.14474 20.0942 -10.7582 0.291305 1.62291 41.5914 15.9102 -5.0879 -32.9281 0.0 0.0 -0.0 0.0 -0.0 36.3797 19.1537 -6.96207 -12.3975 -0.308748 -1.87383 -14.6296 12.9045 -2.35846 -28.9855 0.0 0.0 0.0 0.0 0.0 
2677.58398279 704.239 -1531.37325962 -5.46055016067 57.1527281102 -3.05340511779 1.92651 0.733538 3.95951 1.9351 0.480304 3.99807 1.96871 -0.232739 4.02005 1.94639 0.404553 4.00643 0.702642 15.9826 -7.15613 2.11104 34.2054 -6.62802 -0.0 0.0 -0.0 -1.53316 21.5297 0.318255 -1.79108 -22.5541 54.3039 2.11996 -46.3959 0.90861 -38.0736 -2.74866 3.9189 -0.846268 9.97206 -1.29203 -0.0 0.0 -0.0 12.2701 18.6543 -24.6438 -18.1383 6.50095 -72.2165 0.276767 7.80689 -0.0188848 -1.86319 0.069363 -0.227804 -0.0442913 -27.353 -10.52 0.0 0.0 0.0 -15.5123 2.94366 19.2011 -14.5536 0.320747 2.2044 40.0313 19.4147 -5.01803 -33.9729 0.0 0.0 -0.0 0.0 -0.0 34.6705 22.164 -8.39903 -18.553 -0.310052 -2.81781 -5.16428 11.2426 -0.812207 -25.9765 0.0 0.0 0.0 0.0 0.0 
2657.68028621 700.357 -1534.92394758 -4.8706442144 59.0322604659 -3.68383005251 1.94486 0.693648 4.09261 1.95407 0.432046 4.12837 1.98518 -0.302205 4.13988 1.96145 0.354831 4.13571 -1.15017 15.825 -6.64814 -0.087058 33.7272 -5.44609 -0.0 0.0 -0.0 -1.67302 21.0268 0.0389579 -4.52494 -21.1317 54.8084 1.95965 -44.1449 0.794697 -36.8678 -2.62438 3.82675 -0.669798 8.90486 -0.620596 -0.0 0.0 -0.0 12.7147 19.8459 -25.5934 -14.6037 8.34049 -72.3678 0.252821 7.13873 -0.0157704 -1.93131 0.0720394 -0.236091 0.244971 -26.7717 -11.9453 0.0 0.0 0.0 -15.9539 2.7558 19.0711 -17.041 0.31913 2.586 40.8585 19.3403 -5.09174 -34.6274 0.0 0.0 -0.0 0.0 -0.0 33.045 22.2281 -7.76752 -20.8312 -0.284832 -3.16644 1.56463 10.8284 0.24149 -25.9872 0.0 0.0 0.0 0.0 0.0 
2658.0378263 700.357 -1535.75483406 -4.82409794993 58.7007286302 -3.7382085321 1.94486 0.693648 4.09261 1.95407 0.432046 4.12837 1.98518 -0.302205 4.13988 1.96145 0.354831 4.13571 -1.15017 15.825 -6.64814 -0.087058 33.7272 -5.44609 -0.0 0.0 -0.0 -1.67302 21.0268 0.0389579 -4.52494 -21.1317 54.8084 1.95965 -44.1449 0.794697 -36.8678 -2.62438 3.82675 -0.669798 8.90486 -0.620596 -0.0 0.0 -0.0 12.7147 19.8459 -25.5934 -14.6037 8.34049 -72.3678 0.252821 7.13873 -0.0157704 -1.93131 0.0720394 -0.236091 0.244971 -26.7717 -11.9453 0.0 0.0 0.0 -15.9539 2.7558 19.0711 -17.041 0.31913 2.586 40.8585 19.3403 -5.09174 -34.6274 0.0 0.0 -0.0 0.0 -0.0 33.045 22.2281 -7.76752 -20.8312 -0.284832 -3.16644 1.56463 10.8284 0.24149 -25.9872 0.0 0.0 0.0 0.0 0.0 
2658.96998632 700.357 -1537.86107673 -4.71018684199 57.8564255495 -3.87212112298 1.94486 0.693648 4.09261 1.95407 0.432046 4.12837 1.98518 -0.302205 4.13988 1.96145 0.354831 4.13571 -1.15017 15.825 -6.64814 -0.087058 33.7272 -5.44609 -0.0 0.0 -0.0 -1.67302 21.0268 0.0389579 -4.52494 -21.1317 54.8084 1.95965 -44.1449 0.794697 -36.8678 -2.62438 3.82675 -0.669798 8.90486 -0.620596 -0.0 0.0 -0.0 12.7147 19.8459 -25.5934 -14.6037 8.34049 -72.3678 0.252821 7.13873 -0.0157704 -1.93131 0.0720394 -0.236091 0.244971 -26.7717 -11.9453 0.0 0.0 0.0 -15.9539 2.7558 19.0711 -17.041 0.31913 2.586 40.8585 19.3403 -5.09174 -34.6274 0.0 0.0 -0.0 0.0 -0.0 33.045 22.2281 -7.76752 -20.8312 -0.284832 -3.16644 1.56463 10.8284 0.24149 -25.9872 0.0 0.0 0.0 0.0 0.0 
2640.64143005 701.402 -1542.08823308 -3.6065094266 59.4444875577 -5.05993716266 1.90006 0.75626 4.35857 1.9105 0.477655 4.39776 1.94728 -0.307673 4.41288 1.92033 0.392425 4.40616 -1.02617 17.2904 -8.31581 0.440423 37.6473 -7.25946 -0.0 0.0 -0.0 -2.09279 21.0885 -0.555673 -7.54333 -20.174 55.8024 1.65102 -39.2754 0.589161 -37.2802 -2.66667 3.85856 -0.945135 8.43891 -2.60023 -0.0 0.0 -0.0 12.6739 19.7379 -25.5063 -10.7723 8.91641 -73.534 0.245218 6.92618 -0.0148397 -1.90516 0.0710109 -0.232909 -0.0817406 -26.5631 -10.0267 0.0 0.0 0.0 -13.8754 3.53721 17.0972 -22.445 0.258588 3.41268 41.3475 22.5828 -5.21981 -35.3118 0.0 0.0 -0.0 0.0 -0.0 31.1666 22.6303 -7.79744 -21.191 -0.279581 -3.22141 1.17364 10.7976 0.181307 -26.805 0.0 0.0 0.0 0.0 0.0 
2641.54934875 701.402 -1544.18045941 -3.52862772061 58.6959996455 -5.15072780649 1.90006 0.75626 4.35857 1.9105 0.477655 4.39776 1.94728 -0.307673 4.41288 1.92033 0.392425 4.40616 -1.02617 17.2904 -8.31581 0.440423 37.6473 -7.25946 -0.0 0.0 -0.0 -2.09279 21.0885 -0.555673 -7.54333 -20.174 55.8024 1.65102 -39.2754 0.589161 -37.2802 -2.66667 3.85856 -0.945135 8.43891 -2.60023 -0.0 0.0 -0.0 12.6739 19.7379 -25.5063 -10.7723 8.91641 -73.534 0.245218 6.92618 -0.0148397 -1.90516 0.0710109 -0.232909 -0.0817406 -26.5631 -10.0267 0.0 0.0 0.0 -13.8754 3.53721 17.0972 -22.445 0.258588 3.41268 41.3475 22.5828 -5.21981 -35.3118 0.0 0.0 -0.0 0.0 -0.0 31.1666 22.6303 -7.79744 -21.191 -0.279581 -3.22141 1.17364 10.7976 0.181307 -26.805 0.0 0.0 0.0 0.0 0.0 
2623.31091198 705.332 -1549.29604776 -3.91900252526 59.5009464934 -4.89770884037 1.85474 0.734695 4.5626 1.86621 0.44319 4.6 1.902 -0.381206 4.60554 1.87258 0.350143 4.608 -0.906638 15.9572 -8.29206 0.408803 35.2275 -7.3579 -0.0 0.0 -0.0 -2.95978 21.7554 -1.67599 -11.6818 -19.9086 57.2023 1.5598 -37.6898 0.532393 -34.916 -2.42741 3.67213 -0.417772 7.17091 0.270371 -0.0 0.0 -0.0 12.9533 21.0221 -26.0598 -6.26144 9.63332 -74.4741 0.269012 7.59073 -0.0178459 0.102829 -0.00361196 0.0126359 0.256748 -24.8692 -11.3579 0.0 0.0 0.0 -13.3275 5.25262 14.6695 -24.3965 0.217603 3.70932 40.0318 19.3338 -5.01626 -35.2269 0.0 0.0 -0.0 0.0 -0.0 30.2133 23.5052 -7.54553 -21.6056 -0.273105 -3.28468 6.03647 11.0484 0.92012 -31.1745 0.0 0.0 0.0 0.0 0.0 
2610.88694011 708.428 -1554.04784892 -5.56603460951 59.838296993 -3.43471857094 2.41362 0.878655 4.705 2.42575 0.57783 4.75123 2.47208 -0.227522 4.78076 2.44059 0.529491 4.75684 -1.21548 16.4268 -8.62955 0.150865 36.3598 -7.59296 -0.0 0.0 -0.0 -3.3588 20.9872 -2.40543 -13.7426 -18.217 58.6871 1.41374 -35.0026 0.445807 -34.514 -2.38751 3.63946 -0.288507 8.42496 1.6358 -0.0 0.0 -0.0 13.1912 24.7475 -26.2621 -2.03853 10.2187 -75.7702 0.45537 12.712 -0.0507243 2.01492 -0.0666229 0.248714 0.208753 -27.6535 -12.0409 0.0 0.0 0.0 -11.45 7.82742 13.0839 -26.6561 0.157553 4.05087 41.8311 21.437 -5.2314 -36.4858 0.0 0.0 -0.0 0.0 -0.0 29.0054 23.9454 -6.98875 -19.7899 -0.298079 -3.00722 10.068 10.5054 1.5076 -29.4853 0.0 0.0 0.0 0.0 0.0 
2614.01887871 708.428 -1561.09235117 -5.23365410142 57.7066687243 -3.82334760439 2.41362 0.878655 4.705 2.42575 0.57783 4.75123 2.47208 -0.227522 4.78076 2.44059 0.529491 4.75684 -1.21548 16.4268 -8.62955 0.150865 36.3598 -7.59296 -0.0 0.0 -0.0 -3.3588 20.9872 -2.40543 -13.7426 -18.217 58.6871 1.41374 -35.0026 0.445807 -34.514 -2.38751 3.63946 -0.288507 8.42496 1.6358 -0.0 0.0 -0.0 13.1912 24.7475 -26.2621 -2.03853 10.2187 -75.7702 0.45537 12.712 -0.0507243 2.01492 -0.0666229 0.248714 0.208753 -27.6535 -12.0409 0.0 0.0 0.0 -11.45 7.82742 13.0839 -26.6561 0.157553 4.05087 41.8311 21.437 -5.2314 -36.4858 0.0 0.0 -0.0 0.0 -0.0 29.0054 23.9454 -6.98875 -19.7899 -0.298079 -3.00722 10.068 10.5054 1.5076 -29.4853 0.0 0.0 0.0 0.0 0.0 
2615.70067431 708.428 -1564.60551518 -5.08292692267 56.629345546 -4.0027203762 2.41362 0.878655 4.705 2.42575 0.57783 4.75123 2.47208 -0.227522 4.78076 2.44059 0.529491 4.75684 -1.21548 16.4268 -8.62955 0.150865 36.3598 -7.59296 -0.0 0.0 -0.0 -3.3588 20.9872 -2.40543 -13.7426 -18.217 58.6871 1.41374 -35.0026 0.445807 -34.514 -2.38751 3.63946 -0.288507 8.42496 1.6358 -0.0 0.0 -0.0 13.1912 24.7475 -26.2621 -2.03853 10.2187 -75.7702 0.45537 12.712 -0.0507243 2.01492 -0.0666229 0.248714 0.208753 -27.6535 -12.0409 0.0 0.0 0.0 -11.45 7.82742 13.0839 -26.6561 0.157553 4.05087 41.8311 21.437 -5.2314 -36.4858 0.0 0.0 -0.0 0.0 -0.0 29.0054 23.9454 -6.98875 -19.7899 -0.298079 -3.00722 10.068 10.5054 1.5076 -29.4853 0.0 0.0 0.0 0.0 0.0 
2573.81000311 710.113 -1555.92335789 -5.55832835666 61.4897209925 -4.41444963894 2.62496 0.618475 5.38017 2.64101 0.275379 5.40851 2.66358 -0.61957 5.38005 2.62329 0.236598 5.41034 -3.20801 15.9836 -9.55405 -2.1226 36.4027 -7.88877 -0.0 0.0 -0.0 -6.00309 23.6071 -5.52255 -16.3936 -17.7551 65.3918 1.11667 -28.9489 0.288267 -34.3737 -2.37365 3.628 -0.285595 10.6196 2.56747 -0.0 0.0 -0.0 13.3603 26.0266 -26.5084 -2.27493 11.3636 -77.6086 0.738816 20.102 -0.130953 6.36659 -0.180415 0.792819 0.918249 -20.6582 -13.8639 0.0 0.0 0.0 -8.33193 11.1408 9.37072 -32.4002 -0.0553244 4.90633 41.0926 20.6082 -5.14326 -38.7137 0.0 0.0 -0.0 0.0 -0.0 24.6453 23.9988 -4.51587 -18.7762 -0.308194 -2.85201 25.7451 13.3882 3.63398 -33.4045 0.0 0.0 0.0 0.0 0.0 
